<svg width="126" height="261" viewBox="0 0 126 261" fill="none" xmlns="http://www.w3.org/2000/svg">
<circle cx="8.4" cy="8.4" r="8.4" fill="#F5F5F5"/>
<circle cx="42.0001" cy="8.4" r="8.4" fill="#F5F5F5"/>
<circle cx="75.6002" cy="8.4" r="8.4" fill="#F5F5F5"/>
<circle cx="109.2" cy="8.4" r="8.4" fill="#F5F5F5"/>
<circle cx="8.4" cy="43.2008" r="8.4" fill="#F5F5F5"/>
<circle cx="42.0001" cy="43.2008" r="8.4" fill="#F5F5F5"/>
<circle cx="75.6002" cy="43.2008" r="8.4" fill="#F5F5F5"/>
<circle cx="109.2" cy="43.2008" r="8.4" fill="#F5F5F5"/>
<circle cx="8.4" cy="77.9996" r="8.4" fill="#F5F5F5"/>
<circle cx="42.0001" cy="77.9996" r="8.4" fill="#F5F5F5"/>
<circle cx="75.6002" cy="77.9996" r="8.4" fill="#F5F5F5"/>
<circle cx="109.2" cy="77.9996" r="8.4" fill="#F5F5F5"/>
<circle cx="8.4" cy="112.8" r="8.4" fill="#F5F5F5"/>
<circle cx="42.0001" cy="112.8" r="8.4" fill="#F5F5F5"/>
<circle cx="75.6002" cy="112.8" r="8.4" fill="#F5F5F5"/>
<circle cx="109.2" cy="112.8" r="8.4" fill="#F5F5F5"/>
<circle cx="8.4" cy="147.599" r="8.4" fill="#F5F5F5"/>
<circle cx="42.0001" cy="147.599" r="8.4" fill="#F5F5F5"/>
<circle cx="75.6002" cy="147.599" r="8.4" fill="#F5F5F5"/>
<circle cx="109.2" cy="147.599" r="8.4" fill="#F5F5F5"/>
<circle cx="8.4" cy="182.4" r="8.4" fill="#F5F5F5"/>
<circle cx="42.0001" cy="182.4" r="8.4" fill="#F5F5F5"/>
<circle cx="75.6002" cy="182.4" r="8.4" fill="#F5F5F5"/>
<circle cx="109.2" cy="182.4" r="8.4" fill="#F5F5F5"/>
<circle cx="8.4" cy="217.201" r="8.4" fill="#F5F5F5"/>
<circle cx="42.0001" cy="217.201" r="8.4" fill="#F5F5F5"/>
<circle cx="75.6002" cy="217.201" r="8.4" fill="#F5F5F5"/>
<circle cx="109.2" cy="217.201" r="8.4" fill="#F5F5F5"/>
<circle cx="8.4" cy="252" r="8.4" fill="#F5F5F5"/>
<circle cx="42.0001" cy="252" r="8.4" fill="#F5F5F5"/>
<circle cx="75.6002" cy="252" r="8.4" fill="#F5F5F5"/>
<circle cx="109.2" cy="252" r="8.4" fill="#F5F5F5"/>
</svg>
