<svg width="257" height="293" viewBox="0 0 257 293" fill="none" xmlns="http://www.w3.org/2000/svg">
<g opacity="0.3">
<path d="M193.331 209.346C199.649 209.346 204.771 204.225 204.771 197.907C204.771 191.589 199.649 186.467 193.331 186.467C187.013 186.467 181.892 191.589 181.892 197.907C181.892 204.225 187.013 209.346 193.331 209.346Z" fill="#31A2B0"/>
<path d="M244.81 207.059C251.129 207.059 256.25 201.938 256.25 195.62V153.293C256.25 128.061 235.723 107.534 210.491 107.534H196.742V67.189C196.742 30.1409 165.951 0 128.104 0C90.2567 0 59.4655 30.1409 59.4655 67.189V107.534H45.759C20.5275 107.534 0 128.061 0 153.293V247.098C0 272.33 20.5275 292.857 45.759 292.857H210.491C235.723 292.857 256.25 272.33 256.25 247.098C256.25 240.78 251.129 235.659 244.81 235.659C238.492 235.659 233.371 240.78 233.371 247.098C233.371 259.714 223.107 269.978 210.491 269.978H45.759C33.1432 269.978 22.8795 259.714 22.8795 247.098V153.293C22.8795 140.677 33.1432 130.413 45.759 130.413H210.491C223.107 130.413 233.371 140.677 233.371 153.293V195.62C233.371 201.938 238.492 207.059 244.81 207.059ZM173.863 107.534H82.345V67.189C82.345 42.7566 102.872 22.8795 128.104 22.8795C153.335 22.8795 173.863 42.7566 173.863 67.189V107.534Z" fill="#31A2B0"/>
<path d="M106.961 209.346C113.279 209.346 118.401 204.225 118.401 197.907C118.401 191.589 113.279 186.467 106.961 186.467C100.643 186.467 95.5215 191.589 95.5215 197.907C95.5215 204.225 100.643 209.346 106.961 209.346Z" fill="#31A2B0"/>
<path d="M64.0628 209.346C70.3808 209.346 75.5025 204.225 75.5025 197.907C75.5025 191.589 70.3808 186.467 64.0628 186.467C57.7448 186.467 52.623 191.589 52.623 197.907C52.623 204.225 57.7448 209.346 64.0628 209.346Z" fill="#31A2B0"/>
<path d="M149.861 209.346C156.179 209.346 161.3 204.225 161.3 197.907C161.3 191.589 156.179 186.467 149.861 186.467C143.543 186.467 138.421 191.589 138.421 197.907C138.421 204.225 143.543 209.346 149.861 209.346Z" fill="#31A2B0"/>
</g>
</svg>
