
<svg width="56" height="165" viewBox="0 0 56 165" fill="none" xmlns="http://www.w3.org/2000/svg">
<circle cx="6.31896" cy="5.61584" r="5.46154" fill="#F1F0FF"/>
<circle cx="28.1647" cy="5.61584" r="5.46154" fill="#F1F0FF"/>
<circle cx="6.31896" cy="27.4615" r="5.46154" fill="#F1F0FF"/>
<circle cx="28.1647" cy="27.4615" r="5.46154" fill="#F1F0FF"/>
<circle cx="50.0113" cy="27.4615" r="5.46154" fill="#F1F0FF"/>
<circle cx="6.31896" cy="49.3072" r="5.46154" fill="#F1F0FF"/>
<circle cx="28.1647" cy="49.3072" r="5.46154" fill="#F1F0FF"/>
<circle cx="50.0113" cy="49.3092" r="5.46154" fill="#F1F0FF"/>
<circle cx="50.0113" cy="70.6158" r="5.46154" fill="#F1F0FF"/>
<circle cx="6.31896" cy="71.1549" r="5.46154" fill="#F1F0FF"/>
<circle cx="28.1647" cy="71.1549" r="5.46154" fill="#F1F0FF"/>
<circle cx="6.31896" cy="93.0006" r="5.46154" fill="#F1F0FF"/>
<circle cx="28.1647" cy="93.0006" r="5.46154" fill="#F1F0FF"/>
<circle cx="6.31896" cy="114.846" r="5.46154" fill="#F1F0FF"/>
<circle cx="28.1647" cy="114.846" r="5.46154" fill="#F1F0FF"/>
<circle cx="6.31896" cy="136.692" r="5.46154" fill="#F1F0FF"/>
<circle cx="28.1647" cy="136.692" r="5.46154" fill="#F1F0FF"/>
<circle cx="6.31896" cy="158.54" r="5.46154" fill="#F1F0FF"/>
<circle cx="28.1647" cy="158.54" r="5.46154" fill="#F1F0FF"/>
<circle cx="6.85742" cy="6" r="6" fill="#F15A23"/>
<circle cx="6.85742" cy="27.1543" r="6" fill="#F15A23"/>
<circle cx="6.85742" cy="49.1543" r="6" fill="#F15A23"/>
<circle cx="6.85742" cy="71.1543" r="6" fill="#F15A23"/>
</svg>
