
<svg width="1482" height="144" viewBox="0 0 1482 144" fill="none" xmlns="http://www.w3.org/2000/svg">
<mask id="mask0" mask-type="alpha" maskUnits="userSpaceOnUse" x="0" y="-1" width="1482" height="144">
<path d="M1482 -0.000976562H0V142.999H1482V-0.000976562Z" fill="#C4C4C4"/>
</mask>
<g mask="url(#mask0)">
</g>
<mask id="mask1" mask-type="alpha" maskUnits="userSpaceOnUse" x="0" y="0" width="1482" height="144">
<path d="M504.5 0.999023C504.5 0.999023 216 0 9.76965e-08 0C-0.000211618 29.5 0.34375 76.499 0.34375 76.499C17.5004 66.2378 52.0124 74.7453 179.892 106.614C307.772 138.484 350.398 158.402 509.279 106.614L513.289 105.307C668.433 54.7303 684.964 49.3413 837.375 106.614C991.093 164.377 1131.88 148.443 1273.97 94.6633C1387.64 51.6393 1456.53 63.4583 1476.77 74.7453L1482 1C1482 1 1286.5 7.99902 1157 0.999023L1010.5 0.999422H863.999C850.124 0.999422 669.499 0.999023 669.499 0.999023H504.5Z" fill="#F15A23"/>
</mask>
<g mask="url(#mask1)">
<path d="M1482 1H0V143H1482V1Z" fill="#EEF2FE"/>
</g>
<mask id="mask2" mask-type="alpha" maskUnits="userSpaceOnUse" x="0" y="-1" width="1481" height="127">
<path d="M82.2224 -0.000827789H381.711H776.379H949.793H1118.22L1243.8 -0.000976562H1350.94L1481 -0.000827789V78.4994C1481 78.4994 1418.1 68.5255 1305.47 100.656C1164.69 140.819 1048.22 128.919 895.917 85.7805C743.613 42.6424 705.211 70.9055 547.788 109.581C390.363 148.257 328.905 109.581 202.198 85.7805C98.08 66.2235 0 78.9998 0 78.9998L0.000317455 21.9996V-0.000827789H82.2224Z" fill="#EEF2FE"/>
</mask>
<g mask="url(#mask2)">
<path d="M1482 -0.000976562H0V139.5L1482 142.999V-0.000976562Z" fill="#F15A23"/>
</g>
</svg>
